<svg xmlns="http://www.w3.org/2000/svg" viewBox="0 0 24.72 20.78"><g data-name="レイヤー 2"><path d="M0 18.74c2.5-.43 4.88-.73 7-2.48a5.51 5.51 0 01-3-1.14 5.13 5.13 0 01-1.74-2.48h2c-.1-.37-.4-.31-.6-.4A5.28 5.28 0 01.44 8.05c-.08-.5 0-.77.59-.48a3.4 3.4 0 001.48.35C.26 5.34-.15 3.25 1.18 1A17.93 17.93 0 005 4.29a16.11 16.11 0 006 2.1c.69.1.82-.14.79-.8a5.23 5.23 0 017.69-5c.07 0 .17.06.22.12 1.1 1.29 2.3.78 3.43.23l.87-.4c0 .82-.08.87-1.73 2.66a17.64 17.64 0 002.48-.56 7.53 7.53 0 01-1.95 2.15 1.24 1.24 0 00-.54 1.13A14.59 14.59 0 019.59 20.6 14.09 14.09 0 010 18.74z" fill="#fff" data-name="レイヤー 1"/></g></svg>