<svg xmlns="http://www.w3.org/2000/svg" viewBox="0 0 109.02 117.57"><defs><style>.logo-color1{fill:#0094b0}.logo-color2{fill:#0097b4}.logo-color3{fill:#f48c00}</style></defs><path class="logo-color1" d="M26.17 58.53a18.23 18.23 0 01-1 2.77 17.84 17.84 0 01-1.38 2.59 23.41 23.41 0 01-1.73 2.36 20.21 20.21 0 01-2 2.09.18.18 0 01-.25 0 .21.21 0 010-.06 21.47 21.47 0 01-1.21-5.71 17.46 17.46 0 012.82-11.19 20.9 20.9 0 013.77-4.46.18.18 0 01.25 0 .21.21 0 010 .06 21.42 21.42 0 01.81 2.81 22 22 0 01.4 2.9 19.16 19.16 0 01-.45 5.84zm-.58-.15a17.57 17.57 0 00.45-2.8 19.37 19.37 0 000-2.85 21 21 0 00-.34-2.84 20.1 20.1 0 00-.67-2.78l.29.07a19.43 19.43 0 00-1.92 2.13 22.32 22.32 0 00-1.64 2.34 17.88 17.88 0 00-2.73 10.87 22.6 22.6 0 00.33 2.85 21.53 21.53 0 00.68 2.77l-.28-.07a20.42 20.42 0 001.91-2.13 22.23 22.23 0 001.63-2.34 19 19 0 001.32-2.53 16.76 16.76 0 00.97-2.69z"/><path class="logo-color2" d="M19.91 68.39a.19.19 0 01-.18-.16c-.51-4 2.26-16.1 5.35-21.28a.19.19 0 01.25-.06.18.18 0 01.06.25c-3.05 5.13-5.81 17.1-5.29 21a.2.2 0 01-.16.21z"/><path class="logo-color2" d="M19.92 68.39a.23.23 0 01-.11 0 .19.19 0 010-.26c2.32-3.23 5.56-15.08 5.29-21a.19.19 0 01.17-.19.2.2 0 01.19.18c.27 6-3 18-5.35 21.27a.19.19 0 01-.19 0z"/><path class="logo-color1" d="M57.25 11.86a17.93 17.93 0 01-2.46 1.61 18.89 18.89 0 01-2.67 1.22 24.52 24.52 0 01-2.81.83 21.42 21.42 0 01-2.89.43.2.2 0 01-.2-.17v-.07a20.89 20.89 0 012.5-5.27 18.65 18.65 0 013.9-4.37 18.73 18.73 0 015.12-2.83A21 21 0 0163.45 2a.18.18 0 01.19.17v.07a21.29 21.29 0 01-1.06 2.72 22.11 22.11 0 01-1.44 2.56 18.1 18.1 0 01-1.77 2.33 19.48 19.48 0 01-2.12 2.01zm-.38-.47a17.36 17.36 0 002.06-2 20.29 20.29 0 001.76-2.25 24.13 24.13 0 001.46-2.46 20.34 20.34 0 001.14-2.58l.18.24a19.44 19.44 0 00-2.8.53 21.66 21.66 0 00-2.73.87A18.73 18.73 0 0053 6.53a19.05 19.05 0 00-3.81 4.2 21.81 21.81 0 00-1.46 2.46 19.71 19.71 0 00-1.14 2.63l-.19-.24a19.32 19.32 0 002.81-.53 23.42 23.42 0 002.73-.87A22.43 22.43 0 0054.51 13a18 18 0 002.36-1.61z"/><path class="logo-color2" d="M46.41 16a.14.14 0 01-.09 0 .18.18 0 01-.07-.25C48.25 12.19 57.8 4.24 63.39 2a.18.18 0 01.24.1.17.17 0 01-.1.23c-5.54 2.23-15 10.09-17 13.53a.18.18 0 01-.12.14z"/><path class="logo-color2" d="M46.41 16a.17.17 0 01-.17-.13.18.18 0 01.12-.23c3.8-1.16 13.55-8.63 17-13.53a.17.17 0 01.21-.11.19.19 0 010 .25c-3.44 5-13.31 12.5-17.16 13.68z"/><path class="logo-color1" d="M29.48 38.31v-.44a15.15 15.15 0 012.69-7.81 15.23 15.23 0 016.65-4.89l.42-.14v.44a15.23 15.23 0 01-2.69 7.81 15.19 15.19 0 01-6.65 4.89zm9.11-12.38a14.7 14.7 0 00-5.92 4.5 14.72 14.72 0 00-2.53 7 14.72 14.72 0 005.91-4.5 14.65 14.65 0 002.54-7z"/><path class="logo-color2" d="M29.61 37.87a.13.13 0 01-.09-.16C30.3 35 35.56 28 39 25.5a.13.13 0 01.18 0 .14.14 0 010 .18c-3.45 2.43-8.65 9.38-9.45 12.07a.14.14 0 01-.12.12z"/><path class="logo-color2" d="M29.62 37.87a.11.11 0 01-.11-.06.13.13 0 010-.18C32 36.21 37.46 29.49 39 25.56a.11.11 0 01.16-.07.13.13 0 01.08.16c-1.56 4-7.11 10.76-9.56 12.2a.07.07 0 01-.06.02z"/><path class="logo-color1" d="M29.86 77.11a10.92 10.92 0 01-.6 1.56 10.44 10.44 0 01-.83 1.45 14.33 14.33 0 01-1 1.3 10.14 10.14 0 01-1.21 1.15.19.19 0 01-.26 0 .09.09 0 010-.05 11.38 11.38 0 01-.65-3.25 10.66 10.66 0 01.33-3.32 10.39 10.39 0 011.42-3 11.3 11.3 0 012.23-2.45.18.18 0 01.27 0v.05a10.28 10.28 0 01.44 1.6 11.28 11.28 0 01.21 1.65 10.23 10.23 0 010 1.66 11.77 11.77 0 01-.35 1.65zm-.6-.17a10.11 10.11 0 00.3-1.55 11.86 11.86 0 00.06-1.58 13.37 13.37 0 00-.44-3.15l.29.08a13.59 13.59 0 00-2 2.46 10.75 10.75 0 00-1.3 2.87 10.61 10.61 0 00-.36 3.13 13.31 13.31 0 00.45 3.15l-.3-.08a14 14 0 002-2.47 12.49 12.49 0 00.76-1.39 10.1 10.1 0 00.54-1.47zm11.37-2a11.07 11.07 0 011.2 1.17 9.34 9.34 0 011 1.34 12 12 0 01.79 1.45 10.52 10.52 0 01.58 1.57.19.19 0 01-.14.23H44a11.85 11.85 0 01-3.23-.7 11 11 0 01-2.92-1.61 10.73 10.73 0 01-2.2-2.51 10.94 10.94 0 01-1.37-3 .19.19 0 01.13-.23h.06a11.49 11.49 0 011.65.23 12.56 12.56 0 011.59.46 9.45 9.45 0 011.52.69 11.64 11.64 0 011.4.91zm-.39.48a9.57 9.57 0 00-1.3-.88 12.54 12.54 0 00-1.43-.69 13.68 13.68 0 00-3.07-.85l.19-.24a13 13 0 001.47 2.82 10.24 10.24 0 002.12 2.33A10.59 10.59 0 0041 79.5a13.17 13.17 0 003.07.83l-.19.24a14.06 14.06 0 00-1.48-2.82 12.92 12.92 0 00-1-1.24 9.88 9.88 0 00-1.16-1.09zM52.15 6.09a9 9 0 01-1.61.48 9.1 9.1 0 01-1.65.22 11.5 11.5 0 01-1.66 0 10.36 10.36 0 01-1.64-.26.19.19 0 01-.13-.23 11.1 11.1 0 012.19-2.49A10.59 10.59 0 0150.49 2a10.45 10.45 0 013.25-.7 11.43 11.43 0 013.3.27.2.2 0 01.14.23v.06a9.25 9.25 0 01-1 1.33A11.76 11.76 0 0155 4.33a9.27 9.27 0 01-1.34 1 9.56 9.56 0 01-1.51.76zm-.23-.57a9.73 9.73 0 001.41-.7 11.62 11.62 0 001.29-.92 13 13 0 002.23-2.27l.12.29a13 13 0 00-3.18-.09A10.1 10.1 0 0048 4.16a13.62 13.62 0 00-2.22 2.27l-.12-.28a13.54 13.54 0 003.18.08A11.91 11.91 0 0050.42 6a10 10 0 001.5-.48zM76 56.47a8.33 8.33 0 01-1.72.15 8.87 8.87 0 01-1.71-.19 11.31 11.31 0 01-1.64-.43 11.51 11.51 0 01-1.54-.75.19.19 0 01-.06-.26.17.17 0 01.06-.06c.5-.3 1-.62 1.51-.94s1-.65 1.48-1 1-.68 1.41-1c.23-.18.45-.38.66-.57s.21-.2.29-.31l.29-.34a2.36 2.36 0 011.77-.86 4.11 4.11 0 011.85.41 10.53 10.53 0 013 2.14.17.17 0 010 .24 10.83 10.83 0 01-1.14 1.3 12 12 0 01-1.35 1 8.67 8.67 0 01-1.5.88 8.89 8.89 0 01-1.66.59zm-.13-.6a8.52 8.52 0 001.55-.51 11.24 11.24 0 001.44-.8 13.25 13.25 0 002.49-2.18v.25A11.26 11.26 0 0080 51.56a8.32 8.32 0 00-1.52-.83 3.7 3.7 0 00-1.61-.34 1.81 1.81 0 00-1.34.67l-.29.35c-.1.12-.22.22-.33.33a7.69 7.69 0 01-.7.6c-.48.38-1 .73-1.47 1.06a34.55 34.55 0 01-3.12 1.8v-.32a12.5 12.5 0 003.09 1 10.82 10.82 0 001.6.15 8.41 8.41 0 001.55-.16zm27.47 7.96a8.37 8.37 0 01-1.73.15 8.05 8.05 0 01-1.7-.19 11.44 11.44 0 01-1.64-.48 9.85 9.85 0 01-1.53-.75.18.18 0 01-.06-.26.09.09 0 01.06-.06c.51-.31 1-.63 1.51-1s1-.65 1.48-1 1-.68 1.42-1a7.16 7.16 0 00.65-.57 2.81 2.81 0 00.29-.31l.29-.34a2.4 2.4 0 011.77-.86 4.15 4.15 0 011.86.41 10.88 10.88 0 013 2.14.21.21 0 010 .25 11 11 0 01-1.15 1.3 11.85 11.85 0 01-1.33 1.11 8.91 8.91 0 01-3.17 1.45zm-.13-.6a8.52 8.52 0 001.55-.51 10.61 10.61 0 001.43-.8 12.67 12.67 0 002.5-2.18v.25a12.05 12.05 0 00-1.4-1.07 9 9 0 00-1.52-.83 3.73 3.73 0 00-1.61-.34 1.79 1.79 0 00-1.34.67l-.29.35-.33.33c-.23.22-.46.42-.7.61-.48.37-1 .73-1.48 1a34.55 34.55 0 01-3.12 1.8v-.32a11 11 0 001.51.6 10.63 10.63 0 001.57.4 9.74 9.74 0 001.61.15 8.41 8.41 0 001.62-.11zm-2.15-46.55a8.34 8.34 0 01-1.27 1.18 8.43 8.43 0 01-1.46.9 11 11 0 01-1.59.63 10.21 10.21 0 01-1.66.36.19.19 0 01-.21-.17.14.14 0 010-.09q.32-.84.6-1.68c.2-.56.39-1.12.56-1.69s.35-1.13.47-1.7a8.46 8.46 0 00.16-.85 2.06 2.06 0 000-.42v-.45a2.43 2.43 0 01.86-1.77 4.08 4.08 0 011.72-.82A10.68 10.68 0 01103 10a.21.21 0 01.17.18 11.16 11.16 0 01-.1 1.73 12.12 12.12 0 01-.37 1.69 8.67 8.67 0 01-.7 1.6 8.92 8.92 0 01-.94 1.48zm-.48-.4a7.79 7.79 0 00.91-1.35 9.75 9.75 0 00.64-1.52 12.38 12.38 0 00.62-3.25l.17.19a11.49 11.49 0 00-1.76 0 8.84 8.84 0 00-1.71.27 4 4 0 00-1.48.73 1.83 1.83 0 00-.64 1.36v.45a3.75 3.75 0 010 .47 6.52 6.52 0 01-.18.9 17.35 17.35 0 01-.51 1.74 33.3 33.3 0 01-1.35 3.34l-.29-.23a12.61 12.61 0 001.56-.46 9.81 9.81 0 001.48-.66 8.73 8.73 0 001.36-.87 7.55 7.55 0 001.18-1.11z"/><path class="logo-color3" d="M90.48 53.88a12.35 12.35 0 01-3 3.94 16.59 16.59 0 01-2 1.49 14.09 14.09 0 01-2.17 1.16h-.08a.16.16 0 01-.17-.17c.09-.86.16-1.72.22-2.59s.11-1.72.14-2.58 0-1.72 0-2.58c0-.43-.05-.85-.11-1.27 0-.21-.06-.41-.1-.61s-.11-.39-.16-.63a3.52 3.52 0 010-1.41 3.18 3.18 0 01.54-1.3 5.89 5.89 0 012-1.78 15.19 15.19 0 015-1.63.17.17 0 01.2.13 15.92 15.92 0 01.51 2.45 17.3 17.3 0 01.13 2.5 13.1 13.1 0 01-.28 2.49 10.75 10.75 0 01-.67 2.39zm-.56-.25A12.67 12.67 0 0091 49a16.45 16.45 0 00-.07-2.43 16 16 0 00-.37-2.4l.21.13a19.39 19.39 0 00-2.48.69A13.4 13.4 0 0086 46a5.69 5.69 0 00-1.84 1.63 2.8 2.8 0 00-.4 2.25c0 .19.12.42.16.64s.08.44.11.67c.06.44.08.88.1 1.32a25.41 25.41 0 010 2.62c-.09 1.75-.28 3.48-.54 5.2l-.26-.2a15.71 15.71 0 002-1.22 17.82 17.82 0 001.85-1.5 12.1 12.1 0 002.74-3.78z"/><path class="logo-color1" d="M6 32.49a10 10 0 01-1.64-.35 9.84 9.84 0 01-1.56-.6 12.67 12.67 0 01-1.44-.81 11.63 11.63 0 01-1.32-1 .19.19 0 010-.27h.05a11.48 11.48 0 013.11-1.13 10.92 10.92 0 013.33-.19 10.7 10.7 0 013.19 1 11.19 11.19 0 012.76 1.82.19.19 0 010 .26 10.14 10.14 0 01-1.51.68 13.2 13.2 0 01-1.6.46 10.22 10.22 0 01-1.65.22A10.48 10.48 0 016 32.49zm.07-.61a10.39 10.39 0 001.58.06 12 12 0 001.57-.18 13.34 13.34 0 003-.92v.3a12.93 12.93 0 00-2.74-1.6 10.8 10.8 0 00-3-.86 10.74 10.74 0 00-3.15.13 13.43 13.43 0 00-3 .92v-.3A13.25 13.25 0 003.06 31a11 11 0 001.49.54 8.94 8.94 0 001.54.34z"/><path class="logo-color2" d="M12.37 31.11c-3.08-1.33-10-2-12.12-1.43a.1.1 0 01-.12-.07.09.09 0 01.07-.13c2.19-.58 9.14.09 12.25 1.44a.1.1 0 01.06.14.13.13 0 01-.14.05z"/><path class="logo-color2" d="M9.89 31.29c-3.53 0-8.18-.78-9.75-1.63a.11.11 0 01-.05-.14.11.11 0 01.14 0c2 1.06 8.82 2 12.12 1.43a.1.1 0 110 .2 15.25 15.25 0 01-2.46.14z"/><path class="logo-color3" d="M24 36.34a13.9 13.9 0 01-1 2 13.11 13.11 0 01-1.26 1.79A15.47 15.47 0 0118.51 43a.19.19 0 01-.26 0v-.06a15.49 15.49 0 01-.41-4.34 13 13 0 013.1-8 15.42 15.42 0 013.2-2.94.18.18 0 01.26.05v.06a15.38 15.38 0 01.41 4.33 13.12 13.12 0 01-.26 2.17 13.85 13.85 0 01-.55 2.07zm-.58-.22a12.85 12.85 0 00.59-2 14.78 14.78 0 00.24-2.12 16.51 16.51 0 000-2.11 14.51 14.51 0 00-.23-2.1l.28.11a13 13 0 00-1.58 1.4 16.38 16.38 0 00-1.41 1.58 14.26 14.26 0 00-2.1 3.62 14 14 0 00-.87 4.1 16.66 16.66 0 000 2.12 14.66 14.66 0 00.23 2.1l-.28-.11a16 16 0 001.58-1.4 17.38 17.38 0 001.4-1.58 15.31 15.31 0 001.2-1.73 12.16 12.16 0 00.91-1.88z"/><path class="logo-color3" d="M18.4 43a.13.13 0 01-.13-.13c0-3 3.1-11.67 5.84-15.21a.14.14 0 01.19 0 .13.13 0 010 .19c-2.71 3.51-5.81 12.09-5.78 15a.14.14 0 01-.14.14z"/><path class="logo-color3" d="M18.41 43a.12.12 0 01-.09 0 .14.14 0 010-.2c2-2.17 5.44-10.62 5.78-15a.13.13 0 01.14-.12.13.13 0 01.13.14c-.34 4.47-3.83 13-5.85 15.21a.14.14 0 01-.11-.03z"/><path class="logo-color2" d="M39.68 53.91a11.21 11.21 0 010 5.49A12.26 12.26 0 0137 64.26a15.88 15.88 0 01-9.62 5.13 17.43 17.43 0 01-10.84-1.74 14.75 14.75 0 01-4.38-3.47 12.69 12.69 0 01-2.61-5 .42.42 0 01.3-.5.41.41 0 01.5.29 11.84 11.84 0 002.38 4.7 13.88 13.88 0 004.13 3.36 16.85 16.85 0 0010.44 1.82A15.53 15.53 0 0036.77 64a11.89 11.89 0 002.59-4.69 10.89 10.89 0 00.11-5.31.11.11 0 01.08-.12.1.1 0 01.13.03z"/><path class="logo-color2" d="M39.88 55.8a1.59 1.59 0 01-.48 1.08 1.61 1.61 0 01-1.08.42 1.54 1.54 0 01-1.53-1.5 1.56 1.56 0 01.43-1.1 1.55 1.55 0 012.22 0 1.55 1.55 0 01.44 1.1zm-.36 0a1.21 1.21 0 00-.37-.84 1.27 1.27 0 00-.83-.35 1.24 1.24 0 00-.85.34 1.2 1.2 0 00-.38.85 1.23 1.23 0 001.23 1.25 1.19 1.19 0 00.87-.38 1.2 1.2 0 00.33-.87z"/><path class="logo-color1" d="M78.55 43.18a6.68 6.68 0 01-1.44 2 4.69 4.69 0 01-1 .77 2.21 2.21 0 01-1.25.36 1.38 1.38 0 01-.66-.23 1.6 1.6 0 01-.46-.51 3.16 3.16 0 01-.41-1.21 6.68 6.68 0 01.09-2.48 5 5 0 011.15-2.27 3.45 3.45 0 011.07-.8 2.28 2.28 0 011.4-.22 2 2 0 011.26.73 2.66 2.66 0 01.57 1.26 4.53 4.53 0 01-.32 2.6zm-.61-.24a3.87 3.87 0 00.15-2.15 1.62 1.62 0 00-1.19-1.33 2.1 2.1 0 00-1.78.72A4.28 4.28 0 0074 42.07a5.8 5.8 0 00-.21 2.27 2.85 2.85 0 00.31 1 .92.92 0 00.78.54 1.73 1.73 0 001-.31 4.68 4.68 0 00.86-.75 6.31 6.31 0 001.2-1.88zm7.9-10.04a6.59 6.59 0 01-1 2.27 4.58 4.58 0 01-.82.94 2.22 2.22 0 01-1.17.59 1.27 1.27 0 01-.69-.1 1.72 1.72 0 01-.55-.41 3.16 3.16 0 01-.61-1.11 6.63 6.63 0 01-.37-2.46 4.91 4.91 0 01.7-2.44 3.67 3.67 0 01.9-1 2.34 2.34 0 011.33-.48 2 2 0 011.38.48 2.7 2.7 0 01.8 1.14 4.52 4.52 0 01.1 2.58zm-.65-.12a3.86 3.86 0 00-.25-2.14 1.61 1.61 0 00-1.41-1.08 2.09 2.09 0 00-1.62 1 4.3 4.3 0 00-.73 2.07 5.79 5.79 0 00.22 2.27 2.9 2.9 0 00.51 1 .92.92 0 00.86.39 1.71 1.71 0 00.93-.5 4.37 4.37 0 00.7-.89 5.93 5.93 0 00.79-2.12z"/><path class="logo-color1" d="M81.06 35.07a2.65 2.65 0 01-.09 1 2.37 2.37 0 01-.2.5 1 1 0 01-.4.42.66.66 0 01-.61 0 1.65 1.65 0 01-.43-.35 2.91 2.91 0 01-.53-.92 2.21 2.21 0 01-.11-1.09 1.32 1.32 0 01.72-1 .92.92 0 01.69 0 1.16 1.16 0 01.52.36 2 2 0 01.44 1.08zm-.47.08a1.33 1.33 0 00-.39-.72.55.55 0 00-.57-.18.75.75 0 00-.41.54 1.63 1.63 0 000 .85 2.12 2.12 0 00.38.82c.17.23.44.44.64.32a1.06 1.06 0 00.38-.73 2.7 2.7 0 00-.03-.9zm7.75-1.23a3.74 3.74 0 01-1.21.72 2.68 2.68 0 01-.69.17 1.21 1.21 0 01-.74-.1.84.84 0 01-.43-.65 1.78 1.78 0 01.06-.73 3.8 3.8 0 01.6-1.27 2.89 2.89 0 011.07-.93 2.07 2.07 0 01.75-.18 1.4 1.4 0 01.8.21 1.14 1.14 0 01.51.69 1.49 1.49 0 010 .81 2.53 2.53 0 01-.72 1.26zm-.34-.34a2.12 2.12 0 00.53-1 .86.86 0 00-.28-.88 1.13 1.13 0 00-1 0 2.34 2.34 0 00-1 .7 3.09 3.09 0 00-.61 1.09c-.12.39-.15.87.18 1a1.47 1.47 0 001.18-.18 3.35 3.35 0 001-.73zM65.92 75a6.47 6.47 0 01-2.41.66 4.77 4.77 0 01-1.25 0 2.24 2.24 0 01-1.2-.53 1.33 1.33 0 01-.36-.59 1.76 1.76 0 010-.68 3.41 3.41 0 01.46-1.2 6.82 6.82 0 011.65-1.86 5.07 5.07 0 012.33-1 3.59 3.59 0 011.34.07 2.37 2.37 0 011.22.72 2.06 2.06 0 01.51 1.37 2.77 2.77 0 01-.37 1.34 4.52 4.52 0 01-1.92 1.7zm-.32-.57a3.88 3.88 0 001.48-1.56A1.63 1.63 0 0067 71a2.1 2.1 0 00-1.84-.58 4.15 4.15 0 00-2.05.76 5.87 5.87 0 00-1.61 1.61 2.86 2.86 0 00-.42 1 .92.92 0 00.25.92 1.73 1.73 0 001 .39 4.85 4.85 0 001.14 0 6.19 6.19 0 002.13-.72z"/><path class="logo-color1" d="M52.46 97.18c-24.21 0-43.91-21.71-43.91-48.38S28.25.41 52.46.41s43.9 21.71 43.9 48.39-19.69 48.38-43.9 48.38zm0-95.95C28.7 1.23 9.37 22.57 9.37 48.8S28.7 96.36 52.46 96.36 95.54 75 95.54 48.8 76.22 1.23 52.46 1.23z"/><path class="logo-color1" d="M99.21 48.8a52.89 52.89 0 01-3 17.79 49.46 49.46 0 01-9 15.69A44.43 44.43 0 0173 93.43a40.24 40.24 0 01-35.35 0 44.45 44.45 0 01-14.28-11.17 49.8 49.8 0 01-9-15.67 51.17 51.17 0 01-2.28-8.77 55.67 55.67 0 01-.78-9 53.47 53.47 0 013-17.81 49.3 49.3 0 019-15.72A44.11 44.11 0 0137.59 4.1 40.21 40.21 0 0173 4.12 44.44 44.44 0 0187.28 15.3a49.37 49.37 0 019 15.7 52.32 52.32 0 012.23 8.78c.25 1.49.42 3 .54 4.49 0 .76.12 1.51.15 2.26zm-.82 0A50 50 0 0086.3 16.14a43.32 43.32 0 00-14-10.63 39.41 39.41 0 00-34.06 0 43.52 43.52 0 00-13.9 10.66 48.16 48.16 0 00-9 15.19A51.78 51.78 0 0012.3 48.8a51.15 51.15 0 003 17.45 47.62 47.62 0 008.94 15.23 43.23 43.23 0 0014 10.67 39.45 39.45 0 0034.12 0 43.54 43.54 0 0014-10.67 48.27 48.27 0 009-15.22 52.08 52.08 0 003.03-17.46z"/><path class="logo-color3" d="M64 43.16a2.3 2.3 0 112.3-2.3 2.3 2.3 0 01-2.3 2.3zM64 39a1.87 1.87 0 101.87 1.86A1.86 1.86 0 0064 39z"/><path class="logo-color1" d="M49.53 40.68a9.8 9.8 0 01-2.77 1.55 8.44 8.44 0 01-6.3 0 9.8 9.8 0 01-2.77-1.55.16.16 0 010-.24.17.17 0 01.22 0 13 13 0 002.77 1.25 9.13 9.13 0 005.9 0 13 13 0 002.77-1.25.16.16 0 01.23.05.17.17 0 01-.05.19zm8.64-.49A10.26 10.26 0 0161 38.64a9.52 9.52 0 013.1-.64 9.62 9.62 0 013.15.6A10.2 10.2 0 0170 40.19a.17.17 0 010 .24.16.16 0 01-.21 0 13.56 13.56 0 00-2.77-1.26 9.16 9.16 0 00-5.91 0 13.24 13.24 0 00-2.76 1.26.18.18 0 01-.24-.06.19.19 0 01.06-.18zM70 41.47A11.05 11.05 0 0167.22 43 8.71 8.71 0 0161 43a11.05 11.05 0 01-2.8-1.48.17.17 0 010-.24.17.17 0 01.23 0 12.37 12.37 0 002.74 1.32 8.93 8.93 0 005.95 0 12.66 12.66 0 002.75-1.32.17.17 0 01.2.28z"/><path class="logo-color1" d="M48.81 39.88A6 6 0 0146.74 41a6.17 6.17 0 01-2.3.32.18.18 0 01-.17-.18.19.19 0 01.17-.17 6.62 6.62 0 001.09-.13 9.9 9.9 0 001.07-.28 9.25 9.25 0 001-.39 5.9 5.9 0 001-.53.19.19 0 01.25 0 .17.17 0 01-.04.24zm9.81-1.47a5.91 5.91 0 012.06-1.08A6.44 6.44 0 0163 37a.18.18 0 01.16.19.18.18 0 01-.17.17 6.75 6.75 0 00-1.09.13 10.42 10.42 0 00-2.1.67 6.21 6.21 0 00-.95.52.18.18 0 01-.24 0 .17.17 0 01.01-.27zm-19.98 4.77c.16-.24.31-.49.46-.73l.21-.37.1-.19.05-.09s0-.08.09-.06h.09a.37.37 0 01.22.14c.06.08 0 .09 0 .13l-.06.1-.13.18c-.09.12-.18.24-.28.35s-.4.43-.62.63a.08.08 0 01-.11 0 .09.09 0 01-.02-.09zm3 .82l.06-.86v-.74s0-.07.06-.1h.08a.36.36 0 01.27 0c.08 0 0 .08 0 .12v.34c0 .14 0 .29-.09.44a6.76 6.76 0 01-.24.85.1.1 0 01-.1 0 .08.08 0 01-.04-.05zm25.65-7.08a6.61 6.61 0 010 .89 3.27 3.27 0 010 .44v.34s0 .08-.09.1a.34.34 0 01-.26 0h-.07c-.08-.05 0-.08 0-.11v-.3l.1-.42c.07-.28.13-.56.18-.85a.07.07 0 01.09 0 .06.06 0 01.05-.09zM70 38.44a5.8 5.8 0 01-.41.78 3 3 0 01-.24.38l-.13.18-.07.09s0 .08-.12.05a.39.39 0 01-.21-.17v-.18l.08-.08.14-.15.29-.32c.19-.21.37-.43.56-.66a.07.07 0 01.1 0 .07.07 0 01.01.08z"/><path class="logo-color3" d="M59.48 58.42a9.32 9.32 0 01-2.48 2 6.49 6.49 0 01-3.12.89 6.56 6.56 0 01-3.13-.89 9.12 9.12 0 01-2.47-2 .13.13 0 010-.2.15.15 0 01.19 0A11.53 11.53 0 0051 60a8.84 8.84 0 001.4.55 6.29 6.29 0 001.48.21 6.14 6.14 0 001.47-.21 8.59 8.59 0 001.41-.55 11.53 11.53 0 002.52-1.76.14.14 0 01.2 0 .14.14 0 010 .18zm-.73-.87c-.85-.12-1.68-.31-2.5-.51-.42-.09-.83-.21-1.24-.32a.84.84 0 00-.23 0 .63.63 0 00-.22 0l-.25.14-.15.08a.5.5 0 01-.54 0l-.15-.08-.25-.14a.63.63 0 00-.22 0 .84.84 0 00-.23 0c-.41.11-.82.23-1.24.32-.82.2-1.65.39-2.5.51a.15.15 0 01-.17-.13.14.14 0 01.11-.16c.81-.21 1.63-.43 2.44-.67l1.22-.35a1.33 1.33 0 01.39-.06 1 1 0 01.4.09 2.23 2.23 0 01.31.15l.13.08s.06 0 0 0l.13-.08a2.23 2.23 0 01.31-.15 1 1 0 01.4-.09 1.33 1.33 0 01.39.06l1.22.35c.81.24 1.63.46 2.44.67a.15.15 0 01.11.18.15.15 0 01-.11.11z"/><path class="logo-color2" d="M55.05 35.7a10.3 10.3 0 015.22-2.18 18.89 18.89 0 015.67.33c3.71.7 7.29 1.73 11 2.43a23.74 23.74 0 002.73.42 11.61 11.61 0 002.7-.1 10.15 10.15 0 004.89-2.21 14.84 14.84 0 003.47-4.23A21.5 21.5 0 0092.76 25a.15.15 0 01.18-.11.15.15 0 01.11.17 20.51 20.51 0 01-1.94 5.31 14.75 14.75 0 01-3.5 4.48 10.7 10.7 0 01-5.17 2.44 12.08 12.08 0 01-2.88.13 23.18 23.18 0 01-2.81-.42c-1.85-.34-3.68-.75-5.5-1.19s-3.63-.91-5.45-1.26a20.23 20.23 0 00-5.47-.47 10.6 10.6 0 00-2.67.57 11.25 11.25 0 00-2.44 1.25.14.14 0 01-.2 0 .13.13 0 01.03-.2zm-42.63-5.18A32.14 32.14 0 0021 31.94a18 18 0 008.31-1.81 21.25 21.25 0 001.86-1.06c.61-.4 1.16-.82 1.75-1.27a17.59 17.59 0 013.87-2.26 12.26 12.26 0 014.43-.91 29.53 29.53 0 014.43.35c1.45.21 2.89.43 4.34.61a29.89 29.89 0 004.29.31 12 12 0 004.08-.9 10.3 10.3 0 003.42-2.42A9.82 9.82 0 0063.9 19a11 11 0 00.48-4.2 13.27 13.27 0 00-1-4.14 17.57 17.57 0 00-2.23-3.76.21.21 0 010-.29.2.2 0 01.28 0 18.25 18.25 0 012.35 3.76A13.88 13.88 0 0165 14.7a11.23 11.23 0 01-.43 4.46 10.49 10.49 0 01-2.23 3.92 10.88 10.88 0 01-3.65 2.65 12.65 12.65 0 01-4.4 1 16.81 16.81 0 01-2.29-.06c-.73-.06-1.46-.14-2.19-.23-1.46-.17-2.91-.39-4.35-.58a27.13 27.13 0 00-4.29-.33 11.32 11.32 0 00-4.12.81 16.65 16.65 0 00-3.69 2.14c-.57.42-1.19.89-1.81 1.28a18.72 18.72 0 01-1.95 1.1 18.76 18.76 0 01-8.6 1.75 32.14 32.14 0 01-8.65-1.7.21.21 0 01-.13-.25.2.2 0 01.2-.14z"/><path class="logo-color2" d="M88 17.1a8 8 0 00-6.23-7.77 8.26 8.26 0 00-2.67-.16 7.82 7.82 0 00-2.57.68 7.38 7.38 0 00-3.6 3.78 10.38 10.38 0 00-.77 2.58 10.35 10.35 0 00-.16 1.35c0 .46-.06.92-.07 1.38a46.86 46.86 0 00.3 5.54A93.14 93.14 0 0173 35.7a.31.31 0 01-.31.31.33.33 0 01-.31-.31c0-3.72-.52-7.41-.93-11.14a45.91 45.91 0 01-.34-5.64c0-.47 0-1 .08-1.42a13.62 13.62 0 01.18-1.43 11.8 11.8 0 01.84-2.77 8.15 8.15 0 014-4.14A8.65 8.65 0 0179 8.42a9.14 9.14 0 012.9.19 8.54 8.54 0 014.84 3.08 8.7 8.7 0 011.86 5.41.32.32 0 01-.63 0z"/><path class="logo-color2" d="M91.74 19a2.37 2.37 0 01-2.4 2.36 2.39 2.39 0 01-1.66-.7 2.35 2.35 0 011.66-4 2.46 2.46 0 011.67.67 2.28 2.28 0 01.73 1.67zM91 19a1.82 1.82 0 00-.45-1.19 1.61 1.61 0 00-1.2-.53 1.74 1.74 0 00-1.22.5 1.71 1.71 0 000 2.43 1.67 1.67 0 001.21.49A1.69 1.69 0 0091 19z"/><path class="logo-color2" d="M90.25 20a2.61 2.61 0 011.6 0 10.53 10.53 0 001.29.32 1.59 1.59 0 001.11-.24 3.24 3.24 0 00.83-.93.24.24 0 01.34-.07.25.25 0 01.08.33 3.93 3.93 0 01-.93 1.16 2.28 2.28 0 01-1.51.43 10.6 10.6 0 01-1.4-.26 1.81 1.81 0 00-1.11 0 .41.41 0 01-.55-.2.43.43 0 01.2-.55z"/><path class="logo-color1" d="M35.38 81.27a1 1 0 00.64.36 1.1 1.1 0 00.69-.27 1.24 1.24 0 00.37-1.36 1.33 1.33 0 00-1-1 2.43 2.43 0 00-1.59.37 8.93 8.93 0 00-2.65 2.55 10.54 10.54 0 00-1.59 3.39 6.2 6.2 0 000 3.67 4 4 0 001 1.52 4.45 4.45 0 001.58 1 7.92 7.92 0 003.68.52 8.14 8.14 0 003.44-1.23 11.9 11.9 0 004.42-5.87 22.13 22.13 0 001.37-7.44 28.93 28.93 0 00-.87-7.58 34.1 34.1 0 00-2.65-7.19.21.21 0 01.09-.28.2.2 0 01.27.09 34.52 34.52 0 012.88 7.23 29.63 29.63 0 011 7.74 22.37 22.37 0 01-1.36 7.71 15.24 15.24 0 01-1.85 3.5 10.73 10.73 0 01-2.87 2.79 7.26 7.26 0 01-3.83 1.19 9.62 9.62 0 01-3.88-.79 5.51 5.51 0 01-1.72-1 4.36 4.36 0 01-1.12-1.68 7.08 7.08 0 01-.14-3.95 11.27 11.27 0 011.57-3.63 9.07 9.07 0 012.83-2.82 3.15 3.15 0 012.11-.48 2 2 0 011 .54 2.24 2.24 0 01.57 1 2 2 0 010 1.14 1.75 1.75 0 01-.7.94 1.53 1.53 0 01-1.12.28 1.33 1.33 0 01-.92-.67.21.21 0 01.07-.28.21.21 0 01.26 0z"/><path class="logo-color2" d="M77.79 82.74a11.9 11.9 0 01-8.31 3.15 9.65 9.65 0 01-4.38-1.2 6.93 6.93 0 01-1.81-1.43A8.51 8.51 0 0162 81.37a14 14 0 01-1.31-4.31 21 21 0 01-.14-4.48 18.81 18.81 0 01.84-4.4 10.4 10.4 0 012.17-3.91.14.14 0 11.21.19 10 10 0 00-2 3.84 19.1 19.1 0 00-.77 4.31 20 20 0 00.2 4.37 13.39 13.39 0 001.3 4.12 7.86 7.86 0 007 4.16 10.85 10.85 0 004.22-.73 12.07 12.07 0 003.69-2.22.29.29 0 01.38.43z"/><path class="logo-color2" d="M78.2 81.55a1.84 1.84 0 01-1.89 1.81 1.83 1.83 0 01-1.26-.55 1.86 1.86 0 01-.52-1.26 1.83 1.83 0 011.78-1.83 1.85 1.85 0 011.31.51 1.78 1.78 0 01.58 1.32zm-.82 0a1.13 1.13 0 00-.29-.78 1.1 1.1 0 00-.78-.36 1.12 1.12 0 00-.84.31 1.15 1.15 0 000 1.67 1.14 1.14 0 00.84.32 1.18 1.18 0 00.79-.37 1.07 1.07 0 00.28-.79z"/><path class="logo-color2" d="M77.47 82.4a3.33 3.33 0 001-1.68 4 4 0 000-2 .15.15 0 01.1-.18.16.16 0 01.19.09 4.4 4.4 0 01.1 2.22 3.75 3.75 0 01-1.12 1.94.23.23 0 11-.31-.34zm-42.88-9.21a8.21 8.21 0 01-3.83-1.5 12.14 12.14 0 01-2.91-2.9A9.23 9.23 0 0126.22 65a13.3 13.3 0 01-.07-4.08 15.44 15.44 0 013.22-7.39 15.6 15.6 0 012.91-2.83 9.83 9.83 0 013.66-1.7.16.16 0 01.17.11.15.15 0 01-.11.17A9.54 9.54 0 0032.51 51a16 16 0 00-2.77 2.8 14.86 14.86 0 00-3 7.18 12.75 12.75 0 00.12 3.9 8.61 8.61 0 001.54 3.52 11.54 11.54 0 002.75 2.74 8 8 0 003.53 1.45.28.28 0 01.25.32.27.27 0 01-.34.28zM13.48 43.91a6.7 6.7 0 004.26 3.77 8.69 8.69 0 005.8-.19 8.88 8.88 0 002.52-1.55 9.44 9.44 0 001.86-2.31 12.22 12.22 0 001.53-5.78.15.15 0 01.15-.14.14.14 0 01.14.14 12 12 0 01-1.37 6 9.75 9.75 0 01-1.92 2.5 9.12 9.12 0 01-2.67 1.7 9.23 9.23 0 01-6.24.22 7.84 7.84 0 01-2.78-1.57A6.68 6.68 0 0113 44.12a.28.28 0 01.16-.37.28.28 0 01.32.16z"/><path class="logo-color2" d="M13.74 43.16a1.12 1.12 0 00.63 1.45 1.15 1.15 0 001.51-.69 1.15 1.15 0 00-.74-1.48 1.16 1.16 0 00-.86.09 1.15 1.15 0 00-.54.63zm-.74-.27a1.84 1.84 0 011-1 1.89 1.89 0 011.42 0 1.83 1.83 0 011 1 1.74 1.74 0 01.06 1.36 1.78 1.78 0 01-.9 1 1.83 1.83 0 01-2.44-.81 1.91 1.91 0 01-.14-1.55z"/><path class="logo-color2" d="M13 44.17a4.11 4.11 0 01-.39-3.2 3.66 3.66 0 01.83-1.41 5.5 5.5 0 011.27-1 .15.15 0 11.15.25 5 5 0 00-1.17 1 3.43 3.43 0 00-.69 1.27 3.73 3.73 0 00.43 2.86.23.23 0 11-.4.24zm58 5.68a25.68 25.68 0 016.19-5.08 20.25 20.25 0 013.66-1.69 16.21 16.21 0 014-.81 12.81 12.81 0 017.82 1.84 12.34 12.34 0 016 10.2 13.75 13.75 0 01-.52 4 18.84 18.84 0 01-3.8 7.11 24.05 24.05 0 01-6.16 5.17 30.53 30.53 0 01-7.49 3.11.33.33 0 11-.19-.64A30.39 30.39 0 0087.72 70a23.28 23.28 0 005.94-5 18 18 0 003.63-6.81 12.24 12.24 0 00-.24-7.57 11.82 11.82 0 00-4.8-5.84 12.07 12.07 0 00-7.39-1.8 17.5 17.5 0 00-7.37 2.36 25.13 25.13 0 00-6.1 4.91.26.26 0 01-.39-.35z"/><path class="logo-color2" d="M72.37 35.45a.55.55 0 01-.19-.63c0-.2.08-.39.12-.59s.09-.39.14-.59.11-.39.17-.58a11.8 11.8 0 011-2.21 11.35 11.35 0 013.27-3.52 12.39 12.39 0 014.37-1.88 14.1 14.1 0 014.75-.18 13.62 13.62 0 018.2 4.41 17.68 17.68 0 014 8.43 26.24 26.24 0 01.48 4.67 32.15 32.15 0 01-.26 4.69 17.41 17.41 0 01-4.11 8.42 22.26 22.26 0 01-3.44 3.21 24.81 24.81 0 01-4 2.44 29.85 29.85 0 01-8.94 2.67.33.33 0 11-.1-.66 30.07 30.07 0 008.71-2.69 23.74 23.74 0 003.88-2.38 21.18 21.18 0 003.31-3.11 16.64 16.64 0 003.89-8 29.11 29.11 0 00-.16-9.08 16.76 16.76 0 00-3.81-8.1A12.88 12.88 0 0085.87 26a12.13 12.13 0 00-2.25-.12 12 12 0 00-2.23.32 10.81 10.81 0 00-4 1.89 10.38 10.38 0 00-2.86 3.33 10.67 10.67 0 00-.86 2 4.64 4.64 0 00-.16.53 4.72 4.72 0 00-.13.54c0 .18-.08.36-.11.54a.51.51 0 01-.37.51.48.48 0 01-.53-.09zM53.08 96.89a13.26 13.26 0 012.68-7.54 12.86 12.86 0 012.94-2.81 12.52 12.52 0 013.7-1.73 12.27 12.27 0 018.06.58 17 17 0 016.47 4.84.32.32 0 010 .47.33.33 0 01-.46 0 18.56 18.56 0 00-6.28-4.53 12.46 12.46 0 00-3.74-.94 11.52 11.52 0 00-3.83.31 12 12 0 00-6.42 4.14 12.21 12.21 0 00-1.9 3.4 9.53 9.53 0 00-.65 3.84.27.27 0 01-.53 0z"/><path class="logo-color2" d="M57.91 97.3a11.53 11.53 0 01-.08-2 12.34 12.34 0 01.3-2 12.68 12.68 0 011.53-3.78 12.9 12.9 0 012.64-3.11 12.22 12.22 0 0111.57-2.44 17.67 17.67 0 017 4.07.34.34 0 010 .48.34.34 0 01-.47 0 17.89 17.89 0 00-6.75-3.8A11.76 11.76 0 0060.2 89.8a12.32 12.32 0 00-1.48 3.58 11.73 11.73 0 00-.29 3.87.27.27 0 01-.24.29.27.27 0 01-.28-.24zm20.42-33.65a2.39 2.39 0 01-.74 1.65 2.32 2.32 0 01-1.65.64 2.34 2.34 0 01-1.6-.69 2.3 2.3 0 01-.67-1.6 2.37 2.37 0 01.65-1.65 2.33 2.33 0 013.3-.05 2.21 2.21 0 01.71 1.7zm-.8 0a1.81 1.81 0 00-.46-1.13 1.65 1.65 0 10-2.33 2.33 1.6 1.6 0 001.2.47 1.69 1.69 0 001.16-.52 1.65 1.65 0 00.43-1.15zm-1.68-44.58a2.34 2.34 0 01-2.38 2.3 2.32 2.32 0 01-2.28-2.3 2.34 2.34 0 01.65-1.62 2.31 2.31 0 011.63-.71 2.36 2.36 0 011.68.65 2.27 2.27 0 01.7 1.68zm-.8 0a1.81 1.81 0 00-.46-1.07 1.62 1.62 0 00-2.3-.06 1.61 1.61 0 00-.52 1.18 1.65 1.65 0 002.85 1.16 1.63 1.63 0 00.43-1.21z"/><path class="logo-color3" d="M27.06 16.83a8 8 0 001 .79 6.76 6.76 0 001.07.62 7.94 7.94 0 001.14.45 6.6 6.6 0 001.13.31.41.41 0 01.35.45.4.4 0 01-.45.35 7.56 7.56 0 01-1.3-.39 8.72 8.72 0 01-1.19-.58 7.52 7.52 0 01-1.1-.83 9.19 9.19 0 01-.95-.92.22.22 0 010-.29.2.2 0 01.27 0z"/><ellipse class="logo-color3" cx="26.1" cy="16.07" rx="1" ry="1.2" transform="rotate(-40.17 26.105 16.072)"/><path class="logo-color3" d="M25.46 19a6.81 6.81 0 002.29.6 6.73 6.73 0 002.32-.16.4.4 0 11.21.77 7.37 7.37 0 01-1.31.1 9.09 9.09 0 01-1.28-.12 7.79 7.79 0 01-2.4-.84.21.21 0 01-.07-.28.19.19 0 01.25-.08z"/><ellipse class="logo-color3" cx="24.29" cy="18.62" rx="1" ry="1.2" transform="rotate(-60.66 24.291 18.617)"/><path class="logo-color2" d="M68 10.46a8.35 8.35 0 01-1.17 2.28 8.7 8.7 0 01-.83 1 7.8 7.8 0 01-1 .87.4.4 0 01-.56-.09.41.41 0 01.1-.56 7.38 7.38 0 00.94-.7 8.43 8.43 0 00.84-.85 8.17 8.17 0 001.27-2 .19.19 0 01.26-.11.19.19 0 01.15.16z"/><ellipse class="logo-color2" cx="68.21" cy="9.25" rx="1.2" ry="1" transform="rotate(-71.95 68.219 9.257)"/><path class="logo-color1" d="M35.8 34.51A46.36 46.36 0 0035.93 45a39.4 39.4 0 002.63 10.19A27.31 27.31 0 0044.25 64a22.68 22.68 0 008.86 5.55.21.21 0 01.12.25.2.2 0 01-.23.2 23.26 23.26 0 01-9.13-5.53 28.21 28.21 0 01-6-8.91 40.86 40.86 0 01-2.84-10.35 46.91 46.91 0 01-.32-10.46c0-.1 1-1.11 1.12-1a3.28 3.28 0 01-.05.76z"/><path class="logo-color1" d="M54.68 83.5a1 1 0 01-.25-.58.78.78 0 01.23-.63 1.51 1.51 0 01.26-.18.62.62 0 01.34-.1.7.7 0 01.61.35 1.71 1.71 0 01.19 1.18 2.4 2.4 0 01-.48 1 3.07 3.07 0 01-2 1.06 3.82 3.82 0 01-2.21-.25A4.08 4.08 0 0149.7 84a5.82 5.82 0 01-.86-2 8.37 8.37 0 01.24-4.3 11.32 11.32 0 012-3.77A15.13 15.13 0 0154.25 71c.57-.42 1.19-.78 1.79-1.14s1.2-.73 1.77-1.13a32 32 0 008.79-8.9 33.06 33.06 0 003.58-7.55 42.11 42.11 0 001.75-8.18 57.18 57.18 0 00.29-8.38.45.45 0 01.9 0 59 59 0 01-.41 8.5 43.21 43.21 0 01-1.9 8.3 33.39 33.39 0 01-3.75 7.63 30.81 30.81 0 01-5.64 6.36A32.28 32.28 0 0158 69c-1.17.81-2.45 1.43-3.57 2.26a12.86 12.86 0 00-4.94 6.51 8.07 8.07 0 00-.2 4 5.51 5.51 0 00.8 1.84 3.71 3.71 0 001.49 1.26 3.52 3.52 0 001.93.23 2.61 2.61 0 001.68-.86 2 2 0 00.4-.85 1.4 1.4 0 00-.11-.87c-.07-.11-.15-.18-.24-.17s-.24.07-.34.15a.37.37 0 00-.13.32.73.73 0 00.15.39.18.18 0 01-.28.21z"/><path class="logo-color1" d="M52.47 69.89c.89.38.92.12 1 0s.87-1.1.44-1.3-1.75.42-2.75.1c-1.63-.52-1.39-.31-1.49-.28-.28.1 2.33 1.25 2.8 1.48z"/><path class="logo-color3" d="M44.47 12a16.69 16.69 0 01.39 5 19.35 19.35 0 01-.36 2.52 16.18 16.18 0 01-.71 2.48.17.17 0 01-.23.11.09.09 0 01-.06 0 18.39 18.39 0 01-3.29-3.86 16.55 16.55 0 01-2.06-4.65 16.43 16.43 0 01-.39-5.08 18 18 0 011.05-5 .2.2 0 01.24-.11h.06a16.89 16.89 0 011.78 1.81 19 19 0 011.51 2.1 14.66 14.66 0 011.21 2.24 16.84 16.84 0 01.86 2.44zm-.6.15a15.89 15.89 0 00-.8-2.32 18.2 18.2 0 00-1.14-2.19 20 20 0 00-1.42-2 16 16 0 00-1.64-1.84l.29-.07a16.12 16.12 0 00-.57 2.4 20.14 20.14 0 00-.29 2.46 16.74 16.74 0 00.43 4.89 16.53 16.53 0 002 4.51 19.9 19.9 0 001.41 2 19.17 19.17 0 001.65 1.84l-.3.07a16.15 16.15 0 00.58-2.4 18.72 18.72 0 00.23-2.5 18.51 18.51 0 000-2.47 16.51 16.51 0 00-.43-2.41z"/><path class="logo-color3" d="M43.62 22.1a.17.17 0 01-.13-.07c-2-2.83-4.89-13.22-4.66-18.44a.16.16 0 01.32 0c-.23 5.17 2.59 15.44 4.6 18.24a.16.16 0 01-.13.25z"/><path class="logo-color3" d="M43.62 22.09a.16.16 0 01-.13-.17c.44-3.42-2-13.8-4.61-18.24a.16.16 0 010-.22.16.16 0 01.22.06C41.81 8 44.23 18.5 43.78 22a.15.15 0 01-.16.09z"/><path d="M83.51 60.32a12.81 12.81 0 01-2.63 5.6 11.87 11.87 0 01-5.11 3.55 7.77 7.77 0 01-3.13.52 8.6 8.6 0 01-3.08-.75 15.8 15.8 0 01-5-3.75 34.28 34.28 0 01-3.75-4.93 59.28 59.28 0 01-3-5.37 85 85 0 01-4.72-11.38c-1.28-3.88-2.53-7.77-4-11.56a51.31 51.31 0 00-2.52-5.54 21 21 0 00-3.45-4.92 11.15 11.15 0 00-2.4-1.79A9 9 0 0038 19a12.34 12.34 0 00-5.89.55 11.92 11.92 0 00-5.1 3 11.12 11.12 0 00-2.74 5.26.21.21 0 01-.27.19.21.21 0 01-.16-.24 11.66 11.66 0 012.77-5.53A12.59 12.59 0 0131.88 19a12.78 12.78 0 016.2-.64 9.32 9.32 0 013 1.06 11.48 11.48 0 012.51 1.91 21.71 21.71 0 013.63 5.06A52.57 52.57 0 0149.77 32c1.51 3.82 2.78 7.72 4.07 11.6.64 1.93 1.37 3.83 2.14 5.71s1.62 3.69 2.53 5.51A45.47 45.47 0 0065.13 65a15.31 15.31 0 004.71 3.63 7.83 7.83 0 002.84.72 7.06 7.06 0 001.45-.08 8.84 8.84 0 001.43-.37 11.36 11.36 0 004.92-3.29 12.45 12.45 0 002.63-5.35.21.21 0 01.4.09z" fill="#f68d00"/><path class="logo-color2" d="M66.65 60.48a7.77 7.77 0 001.48 1.44 8.39 8.39 0 001.8 1 9.86 9.86 0 002 .58 10.21 10.21 0 002 .18.27.27 0 01.28.26.28.28 0 01-.27.28 10.54 10.54 0 01-2.12-.22 10.84 10.84 0 01-2.07-.66 8.47 8.47 0 01-3.4-2.64.19.19 0 01.29-.24zm15.07-42.84a1.93 1.93 0 011.93.09 2 2 0 01.91 1.61 3.33 3.33 0 010 .46 1.53 1.53 0 000 .37 1.52 1.52 0 00.25.68 2.09 2.09 0 00.25.3 2 2 0 01.27.37 1.88 1.88 0 01.23.9 2 2 0 01-.9 1.58 2.39 2.39 0 01-.43.2l-.42.1a1.42 1.42 0 00-.65.32 1.61 1.61 0 00-.24.28c-.07.1-.12.2-.21.35a2 2 0 01-.66.65 1.91 1.91 0 01-1.81 0 1.85 1.85 0 01-.7-.63l-.13-.2a.83.83 0 00-.09-.16 1.18 1.18 0 00-.23-.27 1.47 1.47 0 00-.62-.32l-.42-.09a2.17 2.17 0 01-.44-.19 2 2 0 01-1-1.59 1.83 1.83 0 01.2-.95 3.84 3.84 0 01.52-.7 1.34 1.34 0 00.23-.63 1.93 1.93 0 000-.34v-.21a2.29 2.29 0 010-.25 2 2 0 011-1.68 2 2 0 011.94-.1 1.34 1.34 0 001.22.05zm.36.67a2.13 2.13 0 01-1 .24 2.18 2.18 0 01-1-.26 1.33 1.33 0 00-1.9 1.12 1 1 0 000 .17v.2a1.68 1.68 0 010 .5 1.94 1.94 0 01-.37.9 4.09 4.09 0 00-.5.61 1.28 1.28 0 00-.16.67 1.44 1.44 0 00.66 1.17 1.83 1.83 0 00.32.14l.4.09a1.89 1.89 0 01.83.46 1.79 1.79 0 01.31.36 2.12 2.12 0 01.11.21l.09.15a1.41 1.41 0 00.52.48 1.42 1.42 0 001.91-.5c.06-.09.13-.24.22-.36a1.78 1.78 0 01.32-.35 1.8 1.8 0 01.83-.41 2.67 2.67 0 00.38-.09 1.24 1.24 0 00.33-.15 1.49 1.49 0 00.68-1.25 1.43 1.43 0 00-.18-.7 1.58 1.58 0 00-.22-.29 3.42 3.42 0 01-.29-.34 1.84 1.84 0 01-.32-.87 2.46 2.46 0 010-.47 1.55 1.55 0 000-.37 1.36 1.36 0 00-.78-1.1 1.45 1.45 0 00-1.19.04zM93.92 38.5a1.55 1.55 0 011.23 1 1.57 1.57 0 01-.15 1.43 2.3 2.3 0 01-.23.28.74.74 0 00-.16.2 1 1 0 00-.14.5 1.67 1.67 0 000 .28 1.45 1.45 0 010 .36 1.38 1.38 0 01-.26.68 1.5 1.5 0 01-1.25.62 1 1 0 01-.36-.06 2.76 2.76 0 01-.32-.12 1 1 0 00-.5-.07 1.22 1.22 0 00-.26.06c-.07 0-.14.07-.27.12a1.36 1.36 0 01-.72.12 1.48 1.48 0 01-1.19-.79 1.39 1.39 0 01-.17-.72v-.19a.57.57 0 000-.13 1 1 0 000-.24 1 1 0 00-.22-.44l-.23-.23a1.81 1.81 0 01-.2-.33 1.57 1.57 0 01.11-1.47 1.43 1.43 0 01.56-.53 4.07 4.07 0 01.64-.22.86.86 0 00.37-.26.76.76 0 00.12-.19l.08-.16.1-.17a1.63 1.63 0 011.41-.67 1.59 1.59 0 011.34.84.88.88 0 00.67.5zm-.1.81a1.58 1.58 0 01-.76-.3 1.84 1.84 0 01-.52-.61.86.86 0 00-.68-.45.84.84 0 00-.78.32.47.47 0 00-.06.09l-.08.13a1.08 1.08 0 01-.24.32 1.59 1.59 0 01-.66.42 2.79 2.79 0 00-.56.15.92.92 0 00-.35.3 1 1 0 00-.1.93 2.25 2.25 0 00.12.21l.21.22a1.66 1.66 0 01.33.68 2.31 2.31 0 010 .37 1.23 1.23 0 000 .19v.12a1 1 0 00.91 1.05 1.09 1.09 0 00.5-.07l.29-.13a1.17 1.17 0 01.36-.08 1.35 1.35 0 01.72.11l.27.11a1.11 1.11 0 00.25 0 1.07 1.07 0 00.9-.45.94.94 0 00.18-.48 1.13 1.13 0 000-.26 2.84 2.84 0 010-.35 1.56 1.56 0 01.19-.7 1.61 1.61 0 01.21-.3 1 1 0 00.16-.21.91.91 0 000-.93 1 1 0 00-.81-.4z"/><path class="logo-color1" d="M80.06 21.26a2.27 2.27 0 01.16-1.37h.06v.06a2 2 0 00.09 1.23 1.56 1.56 0 00.8.82.28.28 0 01.13.39.29.29 0 01-.39.14m10.64 16.79a2 2 0 00.09 1.24 1.58 1.58 0 00.8.81.29.29 0 01.13.4.29.29 0 01-.39.13h-.05a2.1 2.1 0 01-.82-1.21 2.27 2.27 0 01.16-1.37h.08zM75.8 43.66a2.21 2.21 0 010 1.37 2.09 2.09 0 01-.93 1.14.3.3 0 01-.31-.51 1.67 1.67 0 00.88-.74 2 2 0 00.19-1.22s.16-.06.17-.04zm6.94-9.81a2.23 2.23 0 01.47 1.29 2.12 2.12 0 01-.52 1.37.29.29 0 11-.45-.38 1.59 1.59 0 00.59-1 2.05 2.05 0 00-.2-1.23v-.06l.11.01zm-19.2 38.93a2.25 2.25 0 01-.85 1.09 2.09 2.09 0 01-1.43.28.29.29 0 11.09-.58 1.66 1.66 0 001.14 0 2 2 0 00.93-.83.06.06 0 01.07 0l.05.04z"/><path class="logo-color2" d="M89.63 64.31a1.54 1.54 0 011.23 1 1.68 1.68 0 01-.41 1.69 1 1 0 00-.15.2 1 1 0 00-.14.5 1.67 1.67 0 000 .28 1.45 1.45 0 010 .36 1.42 1.42 0 01-.26.68 1.5 1.5 0 01-1.25.62 1.36 1.36 0 01-.36-.06c-.11 0-.25-.1-.32-.12a1.08 1.08 0 00-.5-.08 1.1 1.1 0 00-.26.06c-.08 0-.14.08-.27.13a1.46 1.46 0 01-.72.12 1.5 1.5 0 01-1.19-.79 1.39 1.39 0 01-.17-.72v-.31a1 1 0 000-.24 1 1 0 00-.22-.44l-.21-.19a2.23 2.23 0 01-.2-.33 1.57 1.57 0 01.11-1.47 1.43 1.43 0 01.56-.53 3.24 3.24 0 01.64-.22 1 1 0 00.37-.26A.76.76 0 0086 64s0-.09.08-.15a1 1 0 01.1-.17 1.6 1.6 0 011.44-.68 1.58 1.58 0 011.34.83.87.87 0 00.67.48zm-.1.81a1.68 1.68 0 01-.77-.31 1.64 1.64 0 01-.51-.61.91.91 0 00-.68-.45.86.86 0 00-.78.33s0 .06-.06.09l-.08.13a1.22 1.22 0 01-.24.32 1.48 1.48 0 01-.66.41 3.46 3.46 0 00-.56.16.84.84 0 00-.35.3 1 1 0 00-.1.92 1.05 1.05 0 00.12.21l.2.23a1.58 1.58 0 01.34.67 2.43 2.43 0 010 .38 1.24 1.24 0 000 .18v.13a1 1 0 00.11.48 1 1 0 00.79.57 1.12 1.12 0 00.51-.08l.29-.13a1.55 1.55 0 01.36-.08 1.6 1.6 0 01.72.11 2.57 2.57 0 00.27.12 1.09 1.09 0 00.25 0 1.06 1.06 0 00.9-.44 1.08 1.08 0 00.18-.48.82.82 0 000-.27v-.34a1.56 1.56 0 01.19-.7 1.61 1.61 0 01.21-.3 1 1 0 00.16-.21.93.93 0 000-.94 1 1 0 00-.81-.4z"/><path class="logo-color1" d="M87.26 65.13a2 2 0 00.08 1.23 1.62 1.62 0 00.81.82.28.28 0 01.13.39.29.29 0 01-.39.14 2.14 2.14 0 01-.89-1.24 2.27 2.27 0 01.16-1.37h.06l.04.03zM76 52.86a5.83 5.83 0 01-1.1 1.28 5.61 5.61 0 01-1.49.89c-1.08.44-2.71.28-3.77.47-.37.06-.26.12-.33-.26a.69.69 0 01.56-.79H70a14.58 14.58 0 003.19-.12 4.83 4.83 0 001.46-.53 5.19 5.19 0 001.25-1 .08.08 0 01.09 0 .06.06 0 01.01.06zm27.29 7.36a5.57 5.57 0 01-1.1 1.28 5.4 5.4 0 01-1.48.89 15.66 15.66 0 01-3.31.77.68.68 0 01-.23-1.35h.13a14.58 14.58 0 003.19-.12 4.93 4.93 0 001.46-.53 5.19 5.19 0 001.25-1 .06.06 0 01.08 0l.01.06z"/><path class="logo-color3" d="M86.33 50.88a7.4 7.4 0 01.46 2.38 7.64 7.64 0 01-.37 2.42 10.67 10.67 0 01-1 2.22 23.13 23.13 0 01-1.33 2 .24.24 0 01-.34.05.24.24 0 01-.07-.31c.38-.71.8-1.37 1.19-2.06a16.07 16.07 0 001-2.08 8.26 8.26 0 00.51-2.25 9.27 9.27 0 00-.17-2.34.08.08 0 010-.06.06.06 0 01.12.03zM78 74.5a4.56 4.56 0 01-1.65-.38 5 5 0 01-1.43-1 6.78 6.78 0 01-1.09-1.3 14.66 14.66 0 01-.83-1.39.26.26 0 01.12-.36.27.27 0 01.32.08c.34.44.63.9.94 1.34a11.82 11.82 0 001 1.25 5.45 5.45 0 001.19 1 6.63 6.63 0 001.46.65.05.05 0 010 .07l-.03.04z"/><path class="logo-color3" d="M74.84 76.22a8.59 8.59 0 01-.93-1.46 7.79 7.79 0 01-.62-1.6 10 10 0 01-.39-3.38.19.19 0 01.21-.17h.08c.51.31 1 .6 1.54.89s1 .59 1.56.86 1 .54 1.59.77c.27.11.54.22.81.31a3.59 3.59 0 00.41.11l.43.1a2.41 2.41 0 011.59 1.17 4.08 4.08 0 01.49 1.84 10.5 10.5 0 01-.52 3.61.18.18 0 01-.2.13 9.58 9.58 0 01-1.69-.4 11.71 11.71 0 01-1.6-.66 9.44 9.44 0 01-1.48-.93 8.61 8.61 0 01-1.28-1.19zm.48-.4A7.82 7.82 0 0076.48 77a9.09 9.09 0 001.38.9 12.71 12.71 0 003.08 1.2l-.2.13a14.19 14.19 0 00.26-1.77 9.12 9.12 0 000-1.73 3.81 3.81 0 00-.45-1.59 1.82 1.82 0 00-1.22-.87l-.44-.1a3.36 3.36 0 01-.45-.14 8.09 8.09 0 01-.86-.34 17.55 17.55 0 01-1.58-.82A33.08 33.08 0 0173 70l.29-.15a11.11 11.11 0 00.16 1.62 11.74 11.74 0 00.37 1.53 9.75 9.75 0 00.62 1.49 7 7 0 00.88 1.33z"/><path class="logo-color1" d="M15 117.57l2-9.78H5.21l.09-1.11h16.05l-2.14 10.89zm8.46 0l1-10.6h16l-1 10.6zm5-9.48l-.77 8.36h7.69l.79-8.36zm14.54 5.3l.09-1.12h11l-.09 1.12zm19.8 4.18l1.92-9.78H53l.1-1.11h16L67 117.57zm9.07-5.74l.09-1.12h5.82l-.09 1.12zm.37-4l.09-1.11h5.83l-.1 1.11zm5.86 9.78l5.66-10.07h4.77l-5.65 10.07zm13.23-4.85a3.07 3.07 0 013.13-3.17 5.5 5.5 0 013.86 1.84 5.48 5.48 0 013.85-1.84 3.17 3.17 0 010 6.33 5.48 5.48 0 01-3.85-1.84 5.5 5.5 0 01-3.86 1.84 3.06 3.06 0 01-3.13-3.16zm5.81 0a3.83 3.83 0 00-2.72-1.4 1.4 1.4 0 000 2.79 3.74 3.74 0 002.72-1.39zm5.08-1.4a3.74 3.74 0 00-2.72 1.4 3.77 3.77 0 002.72 1.39 1.4 1.4 0 000-2.79z"/></svg>