<svg xmlns="http://www.w3.org/2000/svg" viewBox="0 0 24.72 20.78"><defs><style>.cls-1{fill:#fff;}</style></defs><g id="レイヤー_2" data-name="レイヤー 2"><g id="レイヤー_1-2" data-name="レイヤー 1"><path class="cls-1" d="M0,18.74c2.5-.43,4.88-.73,7-2.48a5.51,5.51,0,0,1-3-1.14,5.13,5.13,0,0,1-1.74-2.48h2c-.1-.37-.4-.31-.6-.4A5.28,5.28,0,0,1,.44,8.05c-.08-.5,0-.77.59-.48a3.4,3.4,0,0,0,1.48.35C.26,5.34-.15,3.25,1.18,1A17.93,17.93,0,0,0,5,4.29a16.11,16.11,0,0,0,6,2.1c.69.1.82-.14.79-.8a5.23,5.23,0,0,1,7.69-5c.07,0,.17.06.22.12C20.8,2,22,1.49,23.13.94L24,.54c0,.82-.08.87-1.73,2.66a17.64,17.64,0,0,0,2.48-.56A7.53,7.53,0,0,1,22.8,4.79a1.24,1.24,0,0,0-.54,1.13A14.59,14.59,0,0,1,9.59,20.6,14.09,14.09,0,0,1,0,18.74Z"/></g></g></svg>