<svg xmlns="http://www.w3.org/2000/svg" viewBox="0 0 611.44 277.19"><defs><linearGradient id="a" x1="4817.53" y1="10826.6" x2="5417.96" y2="10826.6" gradientTransform="rotate(171.9 3065.203 5328.612)" gradientUnits="userSpaceOnUse"><stop offset=".03" stop-color="#eaac00"/><stop offset=".23" stop-color="#ebb600" stop-opacity=".76"/><stop offset=".61" stop-color="#edc800" stop-opacity=".36"/><stop offset=".87" stop-color="#eed300" stop-opacity=".1"/><stop offset="1" stop-color="#eed700" stop-opacity="0"/></linearGradient></defs><g data-name="レイヤー 2"><path d="M.45 152.35c7 54.2 93.36 61.85 135.38 61.83 43.07 0 88.57-5.71 130.16-16.94 13.76-3.72 25.54 5.73 27.27 15.51 10.14 57.3 95.17 64.76 140.93 64.43 42.68-.31 85.84-6.82 124.76-24.34 13.89-6.26 27.41-14.08 37.56-25.44s16.59-26.73 14.56-41.83c-3-22.26-22.89-38.31-43-48.31-35.66-17.72-77.34-23.53-116.83-20.65-6.6.48-12.92-.64-18.51-4.18-9-5.67-9.93-14.38-8.91-24 1.76-16.53-3.09-30.85-15.21-42.51a4.48 4.48 0 00-1.54-2.47 109 109 0 00-28.35-19.85c-77-37.16-173.59-26-251.39 2.86q-8.91 3.3-17.66 7a298.34 298.34 0 00-53.14 28.87C42.58 72 29.73 83 19.13 96.18c-10 12.53-17.29 26.56-18.84 43a59.24 59.24 0 00.16 13.17z" opacity=".49" fill="url(#a)" data-name="レイヤー 1"/></g></svg>