<svg xmlns="http://www.w3.org/2000/svg" viewBox="0 0 470.97 213.5"><defs><linearGradient id="a" x1="7277.18" y1="7993.81" x2="7739.66" y2="7993.81" gradientTransform="rotate(171.9 4133.374 3813.257)" gradientUnits="userSpaceOnUse"><stop offset=".03" stop-color="#008fb4"/><stop offset=".16" stop-color="#0691af" stop-opacity=".97"/><stop offset=".3" stop-color="#1896a2" stop-opacity=".9"/><stop offset=".46" stop-color="#359f8c" stop-opacity=".78"/><stop offset=".62" stop-color="#5fac6c" stop-opacity=".6"/><stop offset=".78" stop-color="#94bc44" stop-opacity=".38"/><stop offset=".94" stop-color="#d4cf14" stop-opacity=".11"/><stop offset="1" stop-color="#eed700" stop-opacity="0"/></linearGradient></defs><g data-name="レイヤー 2"><path d="M.35 117.35C5.71 159.1 72.25 165 104.63 165a393 393 0 00100.25-13c10.6-2.87 19.67 4.41 21 11.94 7.81 44.14 73.3 49.88 108.55 49.63 32.87-.24 66.12-5.25 96.09-18.75 10.7-4.82 21.12-10.84 28.93-19.6s12.79-20.59 11.22-32.22c-2.31-17.14-17.63-29.5-33.12-37.2-27.47-13.65-59.57-18.13-90-15.91a22.91 22.91 0 01-14.26-3.22c-6.9-4.37-7.65-11.08-6.86-18.47 1.35-12.73-2.38-23.77-11.71-32.74a3.41 3.41 0 00-1.19-1.9 83.69 83.69 0 00-21.84-15.31c-59.29-28.63-133.7-20-193.63 2.2Q91.19 23 84.45 25.86A230.05 230.05 0 0043.54 48C32.8 55.42 22.9 63.9 14.74 74.08 7 83.74 1.42 94.54.22 107.21a45.47 45.47 0 00.13 10.14z" opacity=".74" fill="url(#a)" data-name="レイヤー 1"/></g></svg>