<svg xmlns="http://www.w3.org/2000/svg" viewBox="0 0 382.25 257.1"><defs><linearGradient id="a" x1="1507.49" y1="-536.22" x2="1565.78" y2="-299.16" gradientTransform="matrix(-.98 .35 .34 .96 1848.26 3.26)" gradientUnits="userSpaceOnUse"><stop offset=".03" stop-color="#008fb4"/><stop offset=".16" stop-color="#0691af" stop-opacity=".97"/><stop offset=".3" stop-color="#1896a2" stop-opacity=".9"/><stop offset=".46" stop-color="#359f8c" stop-opacity=".78"/><stop offset=".62" stop-color="#5fac6c" stop-opacity=".6"/><stop offset=".78" stop-color="#94bc44" stop-opacity=".38"/><stop offset=".94" stop-color="#d4cf14" stop-opacity=".11"/><stop offset="1" stop-color="#eed700" stop-opacity="0"/></linearGradient></defs><g data-name="レイヤー 2"><path d="M362.54 57.74c-17.1-7.66-40.39.18-57.47 4.62-14.91 3.87-31.21 5.81-45.87.45-18-6.56-26.52-22.61-37-37.16-7.07-9.78-15.6-19.19-27-23.52-24.7-9.37-47.89 13.81-44.74 37.66 1.13 8.53 4.37 16.61 6.89 24.84 8.33 27.2-2.15 53.18-31.66 61.47-36.38 10.21-79.85-16.67-111.24 11.35-18.86 16.83-18.09 47.75-4 68.07s38.15 31.82 62.15 39.27c41.07 12.74 85.53 16 128.12 7.78 46.87-9.09 90.83-33.33 124.71-66.49a228.63 228.63 0 0036.88-46.64c8.06-13.63 19.14-30.79 19.93-46.68.55-11.31-3.71-22.92-12.3-30.34a30.07 30.07 0 00-7.4-4.68z" opacity=".42" fill="url(#a)" data-name="レイヤー 1"/></g></svg>