<svg xmlns="http://www.w3.org/2000/svg" xmlns:xlink="http://www.w3.org/1999/xlink" viewBox="0 0 611.44 277.19">
<defs>
<style>.svg-bg2{opacity:0.49;fill:url(#名称未設定グラデーション_74);}</style>
<linearGradient id="名称未設定グラデーション_74" x1="4817.53" y1="10826.6" x2="5417.96" y2="10826.6" gradientTransform="matrix(-0.99, 0.14, -0.14, -0.99, 6845.76, 10174.81)" gradientUnits="userSpaceOnUse"><stop offset="0.03" stop-color="#eaac00"/><stop offset="0.23" stop-color="#ebb600" stop-opacity="0.76"/><stop offset="0.61" stop-color="#edc800" stop-opacity="0.36"/><stop offset="0.87" stop-color="#eed300" stop-opacity="0.1"/><stop offset="1" stop-color="#eed700" stop-opacity="0"/></linearGradient></defs><g id="レイヤー_2" data-name="レイヤー 2"><g id="レイヤー_1-2" data-name="レイヤー 1"><path class="svg-bg2" d="M.45,152.35c7,54.2,93.36,61.85,135.38,61.83,43.07,0,88.57-5.71,130.16-16.94,13.76-3.72,25.54,5.73,27.27,15.51,10.14,57.3,95.17,64.76,140.93,64.43,42.68-.31,85.84-6.82,124.76-24.34,13.89-6.26,27.41-14.08,37.56-25.44s16.59-26.73,14.56-41.83c-3-22.26-22.89-38.31-43-48.31-35.66-17.72-77.34-23.53-116.83-20.65-6.6.48-12.92-.64-18.51-4.18-9-5.67-9.93-14.38-8.91-24,1.76-16.53-3.09-30.85-15.21-42.51a4.48,4.48,0,0,0-1.54-2.47A109,109,0,0,0,378.72,23.6c-77-37.16-173.59-26-251.39,2.86q-8.91,3.3-17.66,7A298.34,298.34,0,0,0,56.53,62.33C42.58,72,29.73,83,19.13,96.18c-10,12.53-17.29,26.56-18.84,43A59.24,59.24,0,0,0,.45,152.35Z"/></g></g></svg>