<svg xmlns="http://www.w3.org/2000/svg" xmlns:xlink="http://www.w3.org/1999/xlink" viewBox="0 0 382.25 257.1"><defs><style>.bg-blue1{opacity:0.42;fill:url(#名称未設定グラデーション_18);}</style><linearGradient id="名称未設定グラデーション_18" x1="1507.49" y1="-536.22" x2="1565.78" y2="-299.16" gradientTransform="matrix(-0.98, 0.35, 0.34, 0.96, 1848.26, 3.26)" gradientUnits="userSpaceOnUse"><stop offset="0.03" stop-color="#008fb4"/><stop offset="0.16" stop-color="#0691af" stop-opacity="0.97"/><stop offset="0.3" stop-color="#1896a2" stop-opacity="0.9"/><stop offset="0.46" stop-color="#359f8c" stop-opacity="0.78"/><stop offset="0.62" stop-color="#5fac6c" stop-opacity="0.6"/><stop offset="0.78" stop-color="#94bc44" stop-opacity="0.38"/><stop offset="0.94" stop-color="#d4cf14" stop-opacity="0.11"/><stop offset="1" stop-color="#eed700" stop-opacity="0"/></linearGradient></defs><g id="レイヤー_2" data-name="レイヤー 2"><g id="レイヤー_1-2" data-name="レイヤー 1"><path class="bg-blue1" d="M362.54,57.74c-17.1-7.66-40.39.18-57.47,4.62-14.91,3.87-31.21,5.81-45.87.45-18-6.56-26.52-22.61-37-37.16-7.07-9.78-15.6-19.19-27-23.52-24.7-9.37-47.89,13.81-44.74,37.66,1.13,8.53,4.37,16.61,6.89,24.84,8.33,27.2-2.15,53.18-31.66,61.47-36.38,10.21-79.85-16.67-111.24,11.35-18.86,16.83-18.09,47.75-4,68.07s38.15,31.82,62.15,39.27c41.07,12.74,85.53,16,128.12,7.78,46.87-9.09,90.83-33.33,124.71-66.49a228.63,228.63,0,0,0,36.88-46.64c8.06-13.63,19.14-30.79,19.93-46.68.55-11.31-3.71-22.92-12.3-30.34A30.07,30.07,0,0,0,362.54,57.74Z"/></g></g></svg>