<svg xmlns="http://www.w3.org/2000/svg" xmlns:xlink="http://www.w3.org/1999/xlink" viewBox="0 0 852.9 1025.1"><defs><style>.slime-bg1{opacity:0.74;fill:url(#名称未設定グラデーション_74);}</style><linearGradient id="名称未設定グラデーション_74" x1="1419.18" y1="10506.11" x2="2044.36" y2="10939.9" gradientTransform="translate(2209.98 11213.83) rotate(179.84)" gradientUnits="userSpaceOnUse"><stop offset="0.03" stop-color="#eaac00"/><stop offset="0.23" stop-color="#ebb600" stop-opacity="0.76"/><stop offset="0.61" stop-color="#edc800" stop-opacity="0.36"/><stop offset="0.87" stop-color="#eed300" stop-opacity="0.1"/><stop offset="1" stop-color="#eed700" stop-opacity="0"/></linearGradient></defs><g id="レイヤー_2" data-name="レイヤー 2"><g id="レイヤー_1-2" data-name="レイヤー 1"><path class="slime-bg1" d="M852.87,318.64c2.25,106.51-124.71,150.14-214,184.16-68.53,26.11-118.38,72.43-121.94,148.54C513.39,727.17,562.41,802,567,878.85c2.18,36.35-4.31,74.33-25,104.27C497.14,1047.85,414,1034,380.57,967c-27.87-55.82-14.67-125.16-11.72-184.75,2.46-49.84-1.86-103.71-33.32-142.45C276,566.4,156.22,584.86,78,531.72,15.3,489.09-9.44,404.57,3.2,329.78S59.94,189,111.15,133.06C179.77,58.1,272.78-6.38,374.17.51,457.37,6.16,529,58.19,597.52,105.74c46.37,32.19,83.29,51.73,137,64.82,48.54,11.82,91.34,48.41,108.08,95.8C849.3,285.32,852.54,302.69,852.87,318.64Z"/></g></g></svg>