<svg xmlns="http://www.w3.org/2000/svg" xmlns:xlink="http://www.w3.org/1999/xlink" viewBox="0 0 470.97 213.5"><defs><style>.blue-1{opacity:0.74;fill:url(#名称未設定グラデーション_18);}</style><linearGradient id="名称未設定グラデーション_18" x1="7277.18" y1="7993.81" x2="7739.66" y2="7993.81" gradientTransform="matrix(-0.99, 0.14, -0.14, -0.99, 8759.27, 7009.71)" gradientUnits="userSpaceOnUse"><stop offset="0.03" stop-color="#008fb4"/><stop offset="0.16" stop-color="#0691af" stop-opacity="0.97"/><stop offset="0.3" stop-color="#1896a2" stop-opacity="0.9"/><stop offset="0.46" stop-color="#359f8c" stop-opacity="0.78"/><stop offset="0.62" stop-color="#5fac6c" stop-opacity="0.6"/><stop offset="0.78" stop-color="#94bc44" stop-opacity="0.38"/><stop offset="0.94" stop-color="#d4cf14" stop-opacity="0.11"/><stop offset="1" stop-color="#eed700" stop-opacity="0"/></linearGradient></defs><g id="レイヤー_2" data-name="レイヤー 2"><g id="レイヤー_1-2" data-name="レイヤー 1"><path class="blue-1" d="M.35,117.35C5.71,159.1,72.25,165,104.63,165a393,393,0,0,0,100.25-13c10.6-2.87,19.67,4.41,21,11.94,7.81,44.14,73.3,49.88,108.55,49.63,32.87-.24,66.12-5.25,96.09-18.75,10.7-4.82,21.12-10.84,28.93-19.6s12.79-20.59,11.22-32.22c-2.31-17.14-17.63-29.5-33.12-37.2-27.47-13.65-59.57-18.13-90-15.91a22.91,22.91,0,0,1-14.26-3.22c-6.9-4.37-7.65-11.08-6.86-18.47,1.35-12.73-2.38-23.77-11.71-32.74a3.41,3.41,0,0,0-1.19-1.9,83.69,83.69,0,0,0-21.84-15.31c-59.29-28.63-133.7-20-193.63,2.2q-6.87,2.55-13.61,5.41A230.05,230.05,0,0,0,43.54,48C32.8,55.42,22.9,63.9,14.74,74.08,7,83.74,1.42,94.54.22,107.21A45.47,45.47,0,0,0,.35,117.35Z"/></g></g></svg>